<svg xmlns="http://www.w3.org/2000/svg" viewBox="0 0 800 460" width="800" height="460">
  <defs>
    <filter id="shadow1" x="-2%" y="-2%" width="104%" height="108%">
      <feDropShadow dx="0" dy="1" stdDeviation="3" flood-color="#000" flood-opacity="0.08"/>
    </filter>
    <filter id="shadow2" x="-2%" y="-2%" width="104%" height="110%">
      <feDropShadow dx="0" dy="2" stdDeviation="6" flood-color="#000" flood-opacity="0.1"/>
    </filter>
  </defs>

  <!-- Browser frame -->
  <rect x="0" y="0" width="800" height="460" rx="8" fill="#f8f9fa" stroke="#e0e0e0" stroke-width="1"/>
  <!-- Title bar -->
  <rect x="0" y="0" width="800" height="36" rx="8" fill="#f0f0f0"/>
  <rect x="0" y="20" width="800" height="16" fill="#f0f0f0"/>
  <circle cx="20" cy="18" r="5" fill="#ff5f57"/>
  <circle cx="38" cy="18" r="5" fill="#ffbd2e"/>
  <circle cx="56" cy="18" r="5" fill="#28c940"/>
  <rect x="200" y="8" width="400" height="20" rx="10" fill="#fff" stroke="#ddd" stroke-width="1"/>
  <text x="400" y="22" font-family="system-ui, -apple-system, sans-serif" font-size="11" fill="#888" text-anchor="middle">localhost:3000/sources</text>

  <!-- Page content area -->
  <rect x="0" y="36" width="800" height="424" fill="#ffffff"/>

  <!-- Header row -->
  <text x="40" y="82" font-family="system-ui, -apple-system, sans-serif" font-size="26" font-weight="bold" fill="#1a1a2e">Sources</text>
  <!-- Add Source button -->
  <rect x="640" y="58" width="120" height="36" rx="10" fill="#0070f3"/>
  <text x="700" y="81" font-family="system-ui, -apple-system, sans-serif" font-size="14" font-weight="500" fill="#fff" text-anchor="middle">+ Add Source</text>

  <!-- Source Card 1: Google Drive -->
  <rect x="40" y="110" width="350" height="110" rx="12" fill="#fff" stroke="#e8e8e8" stroke-width="1" filter="url(#shadow1)"/>
  <text x="60" y="140" font-family="system-ui, -apple-system, sans-serif" font-size="16" font-weight="600" fill="#1a1a2e">personal-drive</text>
  <!-- Google Drive chip -->
  <rect x="60" y="152" width="120" height="24" rx="12" fill="#f0f4ff"/>
  <!-- Google Drive icon (simplified) -->
  <polygon points="75,160 82,172 88,160" fill="#4285f4"/>
  <polygon points="72,164 78,172 75,168" fill="#0f9d58"/>
  <polygon points="85,164 88,168 82,172" fill="#f4b400"/>
  <text x="95" y="169" font-family="system-ui, -apple-system, sans-serif" font-size="11" fill="#4a5568">Google Drive</text>
  <text x="60" y="200" font-family="system-ui, -apple-system, sans-serif" font-size="12" fill="#a0a0a0">Created Apr 12, 2026</text>
  <!-- Delete icon -->
  <rect x="350" y="120" width="28" height="28" rx="6" fill="transparent"/>
  <text x="364" y="140" font-family="system-ui, -apple-system, sans-serif" font-size="16" fill="#f31260" text-anchor="middle">×</text>

  <!-- Source Card 2: S3-Compatible (MinIO) -->
  <rect x="410" y="110" width="350" height="110" rx="12" fill="#fff" stroke="#e8e8e8" stroke-width="1" filter="url(#shadow1)"/>
  <text x="430" y="140" font-family="system-ui, -apple-system, sans-serif" font-size="16" font-weight="600" fill="#1a1a2e">local-minio</text>
  <!-- S3 chip -->
  <rect x="430" y="152" width="120" height="24" rx="12" fill="#fff5f0"/>
  <!-- S3 icon (simplified bucket) -->
  <rect x="440" y="158" width="14" height="12" rx="2" fill="#e25d33" stroke="#c44d28" stroke-width="0.5"/>
  <line x1="440" y1="162" x2="454" y2="162" stroke="#c44d28" stroke-width="0.5"/>
  <text x="460" y="169" font-family="system-ui, -apple-system, sans-serif" font-size="11" fill="#4a5568">S3-Compatible</text>
  <text x="430" y="200" font-family="system-ui, -apple-system, sans-serif" font-size="12" fill="#a0a0a0">Created Apr 12, 2026</text>
  <!-- Delete icon -->
  <rect x="720" y="120" width="28" height="28" rx="6" fill="transparent"/>
  <text x="734" y="140" font-family="system-ui, -apple-system, sans-serif" font-size="16" fill="#f31260" text-anchor="middle">×</text>

  <!-- Source Card 3: Telegram -->
  <rect x="40" y="240" width="350" height="110" rx="12" fill="#fff" stroke="#e8e8e8" stroke-width="1" filter="url(#shadow1)"/>
  <text x="60" y="270" font-family="system-ui, -apple-system, sans-serif" font-size="16" font-weight="600" fill="#1a1a2e">backup-bot</text>
  <!-- Telegram chip -->
  <rect x="60" y="282" width="100" height="24" rx="12" fill="#e8f4fd"/>
  <!-- Telegram icon (simplified) -->
  <polygon points="72,290 86,296 72,302 74,296" fill="#229ed9"/>
  <text x="90" y="299" font-family="system-ui, -apple-system, sans-serif" font-size="11" fill="#4a5568">Telegram</text>
  <text x="60" y="330" font-family="system-ui, -apple-system, sans-serif" font-size="12" fill="#a0a0a0">Created Apr 13, 2026</text>
  <!-- Delete icon -->
  <rect x="350" y="250" width="28" height="28" rx="6" fill="transparent"/>
  <text x="364" y="270" font-family="system-ui, -apple-system, sans-serif" font-size="16" fill="#f31260" text-anchor="middle">×</text>

  <!-- Annotation -->
  <rect x="410" y="268" width="350" height="56" rx="8" fill="#1a1a2e" opacity="0.92"/>
  <text x="430" y="290" font-family="system-ui, -apple-system, sans-serif" font-size="13" font-weight="500" fill="#fff">Connect Google Drive, Telegram, and</text>
  <text x="430" y="310" font-family="system-ui, -apple-system, sans-serif" font-size="13" font-weight="500" fill="#fff">S3-compatible backends as storage sources.</text>
  <!-- Arrow from annotation to cards -->
  <line x1="410" y1="296" x2="396" y2="296" stroke="#1a1a2e" stroke-width="2" opacity="0.7"/>
  <polygon points="396,292 386,296 396,300" fill="#1a1a2e" opacity="0.7"/>

  <!-- Caption bar -->
  <rect x="0" y="424" width="800" height="36" fill="#f8f9fa"/>
  <text x="400" y="447" font-family="system-ui, -apple-system, sans-serif" font-size="13" fill="#666" text-anchor="middle" font-style="italic">Sources page — connect your free cloud storage accounts</text>
</svg>