<svg xmlns="http://www.w3.org/2000/svg" viewBox="0 0 800 480" width="800" height="480">
  <defs>
    <filter id="shadow1" x="-2%" y="-2%" width="104%" height="108%">
      <feDropShadow dx="0" dy="1" stdDeviation="3" flood-color="#000" flood-opacity="0.08"/>
    </filter>
    <filter id="modal-shadow" x="-5%" y="-5%" width="110%" height="115%">
      <feDropShadow dx="0" dy="4" stdDeviation="16" flood-color="#000" flood-opacity="0.2"/>
    </filter>
  </defs>

  <!-- Browser frame -->
  <rect x="0" y="0" width="800" height="480" rx="8" fill="#f8f9fa" stroke="#e0e0e0" stroke-width="1"/>
  <rect x="0" y="0" width="800" height="36" rx="8" fill="#f0f0f0"/>
  <rect x="0" y="20" width="800" height="16" fill="#f0f0f0"/>
  <circle cx="20" cy="18" r="5" fill="#ff5f57"/>
  <circle cx="38" cy="18" r="5" fill="#ffbd2e"/>
  <circle cx="56" cy="18" r="5" fill="#28c940"/>
  <rect x="200" y="8" width="400" height="20" rx="10" fill="#fff" stroke="#ddd" stroke-width="1"/>
  <text x="400" y="22" font-family="system-ui, -apple-system, sans-serif" font-size="11" fill="#888" text-anchor="middle">localhost:3000/buckets</text>

  <!-- Page content (dimmed behind modal) -->
  <rect x="0" y="36" width="800" height="444" fill="#ffffff"/>
  <text x="40" y="82" font-family="system-ui, -apple-system, sans-serif" font-size="26" font-weight="bold" fill="#1a1a2e" opacity="0.3">Buckets</text>
  <rect x="640" y="58" width="120" height="36" rx="10" fill="#0070f3" opacity="0.3"/>

  <!-- Modal overlay -->
  <rect x="0" y="36" width="800" height="444" fill="#000" opacity="0.4"/>

  <!-- Modal dialog -->
  <rect x="150" y="70" width="500" height="380" rx="14" fill="#fff" filter="url(#modal-shadow)"/>

  <!-- Modal header -->
  <text x="180" y="108" font-family="system-ui, -apple-system, sans-serif" font-size="20" font-weight="600" fill="#1a1a2e">Create Bucket</text>
  <line x1="150" y1="120" x2="650" y2="120" stroke="#f0f0f0" stroke-width="1"/>

  <!-- Key field -->
  <text x="180" y="150" font-family="system-ui, -apple-system, sans-serif" font-size="13" font-weight="500" fill="#555">Key *</text>
  <rect x="180" y="158" width="440" height="40" rx="8" fill="#f9f9f9" stroke="#e0e0e0" stroke-width="1"/>
  <text x="196" y="183" font-family="system-ui, -apple-system, sans-serif" font-size="14" fill="#1a1a2e">my-files</text>

  <!-- Allowed sources section -->
  <text x="180" y="224" font-family="system-ui, -apple-system, sans-serif" font-size="13" font-weight="500" fill="#555">Allowed sources *</text>
  <text x="180" y="242" font-family="system-ui, -apple-system, sans-serif" font-size="11" fill="#a0a0a0">Choose which sources this bucket is allowed to use for uploads.</text>

  <!-- Source checkboxes -->
  <!-- Checkbox 1: checked -->
  <rect x="180" y="256" width="18" height="18" rx="4" fill="#0070f3" stroke="#0070f3" stroke-width="1.5"/>
  <polyline points="185,265 188,269 193,261" fill="none" stroke="#fff" stroke-width="2" stroke-linecap="round" stroke-linejoin="round"/>
  <text x="206" y="270" font-family="system-ui, -apple-system, sans-serif" font-size="14" fill="#1a1a2e">personal-drive</text>
  <text x="316" y="270" font-family="system-ui, -apple-system, sans-serif" font-size="11" fill="#a0a0a0">(Google Drive)</text>

  <!-- Checkbox 2: checked -->
  <rect x="180" y="286" width="18" height="18" rx="4" fill="#0070f3" stroke="#0070f3" stroke-width="1.5"/>
  <polyline points="185,295 188,299 193,291" fill="none" stroke="#fff" stroke-width="2" stroke-linecap="round" stroke-linejoin="round"/>
  <text x="206" y="300" font-family="system-ui, -apple-system, sans-serif" font-size="14" fill="#1a1a2e">local-minio</text>
  <text x="292" y="300" font-family="system-ui, -apple-system, sans-serif" font-size="11" fill="#a0a0a0">(S3-Compatible)</text>

  <!-- Checkbox 3: unchecked -->
  <rect x="180" y="316" width="18" height="18" rx="4" fill="#fff" stroke="#d0d0d0" stroke-width="1.5"/>
  <text x="206" y="330" font-family="system-ui, -apple-system, sans-serif" font-size="14" fill="#1a1a2e">backup-bot</text>
  <text x="288" y="330" font-family="system-ui, -apple-system, sans-serif" font-size="11" fill="#a0a0a0">(Telegram)</text>

  <!-- Modal footer -->
  <line x1="150" y1="370" x2="650" y2="370" stroke="#f0f0f0" stroke-width="1"/>
  <!-- Cancel button -->
  <rect x="440" y="386" width="80" height="36" rx="10" fill="#f4f4f5"/>
  <text x="480" y="409" font-family="system-ui, -apple-system, sans-serif" font-size="14" fill="#555" text-anchor="middle">Cancel</text>
  <!-- Create button -->
  <rect x="530" y="386" width="90" height="36" rx="10" fill="#0070f3"/>
  <text x="575" y="409" font-family="system-ui, -apple-system, sans-serif" font-size="14" font-weight="500" fill="#fff" text-anchor="middle">Create</text>

  <!-- Annotation -->
  <rect x="150" y="432" width="500" height="28" rx="6" fill="#1a1a2e" opacity="0.92"/>
  <text x="400" y="451" font-family="system-ui, -apple-system, sans-serif" font-size="12" font-weight="500" fill="#fff" text-anchor="middle">Select which storage backends to distribute file chunks across</text>

  <!-- Caption bar -->
  <rect x="0" y="448" width="800" height="32" fill="#f8f9fa"/>
  <text x="400" y="468" font-family="system-ui, -apple-system, sans-serif" font-size="13" fill="#666" text-anchor="middle" font-style="italic">Create a bucket — choose which sources back your storage</text>
</svg>