<svg xmlns="http://www.w3.org/2000/svg" viewBox="0 0 800 440" width="800" height="440">
  <defs>
    <filter id="modal-shadow" x="-5%" y="-5%" width="110%" height="115%">
      <feDropShadow dx="0" dy="4" stdDeviation="16" flood-color="#000" flood-opacity="0.2"/>
    </filter>
  </defs>

  <!-- Browser frame -->
  <rect x="0" y="0" width="800" height="440" rx="8" fill="#f8f9fa" stroke="#e0e0e0" stroke-width="1"/>
  <rect x="0" y="0" width="800" height="36" rx="8" fill="#f0f0f0"/>
  <rect x="0" y="20" width="800" height="16" fill="#f0f0f0"/>
  <circle cx="20" cy="18" r="5" fill="#ff5f57"/>
  <circle cx="38" cy="18" r="5" fill="#ffbd2e"/>
  <circle cx="56" cy="18" r="5" fill="#28c940"/>
  <rect x="200" y="8" width="400" height="20" rx="10" fill="#fff" stroke="#ddd" stroke-width="1"/>
  <text x="400" y="22" font-family="system-ui, -apple-system, sans-serif" font-size="11" fill="#888" text-anchor="middle">localhost:3000/buckets/68f2a...</text>

  <!-- Page content (dimmed) -->
  <rect x="0" y="36" width="800" height="404" fill="#ffffff"/>
  <text x="40" y="82" font-family="system-ui, -apple-system, sans-serif" font-size="26" font-weight="bold" fill="#1a1a2e" opacity="0.2">my-files</text>

  <!-- Modal overlay -->
  <rect x="0" y="36" width="800" height="404" fill="#000" opacity="0.4"/>

  <!-- Modal dialog -->
  <rect x="120" y="60" width="560" height="340" rx="14" fill="#fff" filter="url(#modal-shadow)"/>

  <!-- Modal header -->
  <text x="150" y="98" font-family="system-ui, -apple-system, sans-serif" font-size="20" font-weight="600" fill="#1a1a2e">Share: photo-album.zip</text>
  <line x1="120" y1="112" x2="680" y2="112" stroke="#f0f0f0" stroke-width="1"/>

  <!-- Share link 1 -->
  <rect x="150" y="130" width="480" height="60" rx="8" fill="#f8f9fb" stroke="#e8e8ec" stroke-width="1"/>
  <!-- URL code block -->
  <rect x="162" y="140" width="310" height="32" rx="6" fill="#f0f0f4"/>
  <text x="174" y="161" font-family="monospace, 'Courier New'" font-size="12" fill="#333">localhost:3000/share/aB3xK9...</text>
  <!-- Copy button -->
  <rect x="484" y="142" width="60" height="28" rx="6" fill="#f4f4f5"/>
  <text x="514" y="161" font-family="system-ui, -apple-system, sans-serif" font-size="12" fill="#555" text-anchor="middle">Copy</text>
  <!-- Revoke button -->
  <rect x="552" y="142" width="66" height="28" rx="6" fill="#fff0f0"/>
  <text x="585" y="161" font-family="system-ui, -apple-system, sans-serif" font-size="12" fill="#f31260" text-anchor="middle">Revoke</text>
  <text x="162" y="184" font-family="system-ui, -apple-system, sans-serif" font-size="10" fill="#a0a0a0">expires May 13, 2026</text>

  <!-- Share link 2 -->
  <rect x="150" y="202" width="480" height="60" rx="8" fill="#f8f9fb" stroke="#e8e8ec" stroke-width="1"/>
  <rect x="162" y="212" width="310" height="32" rx="6" fill="#f0f0f4"/>
  <text x="174" y="233" font-family="monospace, 'Courier New'" font-size="12" fill="#333">localhost:3000/share/pQ7wM2...</text>
  <rect x="484" y="214" width="60" height="28" rx="6" fill="#f4f4f5"/>
  <text x="514" y="233" font-family="system-ui, -apple-system, sans-serif" font-size="12" fill="#555" text-anchor="middle">Copy</text>
  <rect x="552" y="214" width="66" height="28" rx="6" fill="#fff0f0"/>
  <text x="585" y="233" font-family="system-ui, -apple-system, sans-serif" font-size="12" fill="#f31260" text-anchor="middle">Revoke</text>
  <text x="162" y="256" font-family="system-ui, -apple-system, sans-serif" font-size="10" fill="#a0a0a0">no expiration</text>

  <!-- Annotation -->
  <rect x="150" y="278" width="480" height="40" rx="8" fill="#1a1a2e" opacity="0.92"/>
  <text x="390" y="296" font-family="system-ui, -apple-system, sans-serif" font-size="12" font-weight="500" fill="#fff" text-anchor="middle">Generate public share links for any file — no account required to download.</text>
  <text x="390" y="312" font-family="system-ui, -apple-system, sans-serif" font-size="11" fill="#ccc" text-anchor="middle">Revoke access anytime.</text>

  <!-- Modal footer -->
  <line x1="120" y1="330" x2="680" y2="330" stroke="#f0f0f0" stroke-width="1"/>
  <!-- Close button -->
  <rect x="478" y="344" width="70" height="34" rx="10" fill="#f4f4f5"/>
  <text x="513" y="366" font-family="system-ui, -apple-system, sans-serif" font-size="14" fill="#555" text-anchor="middle">Close</text>
  <!-- Create Share Link button -->
  <rect x="556" y="344" width="112" height="34" rx="10" fill="#0070f3"/>
  <text x="612" y="366" font-family="system-ui, -apple-system, sans-serif" font-size="13" font-weight="500" fill="#fff" text-anchor="middle">+ Share Link</text>

  <!-- Caption bar -->
  <rect x="0" y="404" width="800" height="36" fill="#f8f9fa"/>
  <text x="400" y="427" font-family="system-ui, -apple-system, sans-serif" font-size="13" fill="#666" text-anchor="middle" font-style="italic">Public share links — share files with anyone via a URL</text>
</svg>